# xmcd
#
# Track frame offsets:
#	150
#	11085
#	24518
#	37836
#	50126
#	60313
#	71891
#	85515
#	101537
#	116312
#	127310
#	143555
#	154353
#	164048
#	176552
#	187728
#	198033
#	210114
#	220171
#
# Disc length: 3057 seconds
# Revision: 0
# Processed by: cddbd v1.5.2PL0 Copyright (c) Steve Scherf et al.
# Submitted via: dBpowerAMP V12.0
#
DISCID=fe0bef13
DTITLE=Willie Nelson - My Own Way - The Minstrel Man
DYEAR=2011
DGENRE=Country
TTITLE0=I'm a Memory
TTITLE1=My Own Peculiar Way
TTITLE2=Both Sides Now
TTITLE3=Funny How Time Slips Away
TTITLE4=Hello Walls
TTITLE5=One In a Row
TTITLE6=Stay Away From Lonely Places
TTITLE7=Pins and Needles (In My Heart)
TTITLE8=Rainy Day Blues
TTITLE9=Good Times
TTITLE10=Will You Remember?
TTITLE11=Laying My Burdens Down
TTITLE12=Mountain Dew
TTITLE13=It Should Be Easier Now
TTITLE14=The Minstrel Man
TTITLE15=Senses
TTITLE16=You Left a Long, Long Time Ago
TTITLE17=Where Do You Stand?
TTITLE18=Blackjack County Chain
EXTD=
EXTT0=
EXTT1=
EXTT2=
EXTT3=
EXTT4=
EXTT5=
EXTT6=
EXTT7=
EXTT8=
EXTT9=
EXTT10=
EXTT11=
EXTT12=
EXTT13=
EXTT14=
EXTT15=
EXTT16=
EXTT17=
EXTT18=
PLAYORDER=
